<?xml version="1.0" standalone="no"?>
<!DOCTYPE svg PUBLIC "-//W3C//DTD SVG 20010904//EN"
 "http://www.w3.org/TR/2001/REC-SVG-20010904/DTD/svg10.dtd">
<svg version="1.0" xmlns="http://www.w3.org/2000/svg"
 width="733.000000pt" height="733.000000pt" viewBox="0 0 733.000000 733.000000"
 preserveAspectRatio="xMidYMid meet">

<g transform="translate(0.000000,733.000000) scale(0.100000,-0.100000)"
fill="#000000" stroke="none">
<path d="M3720 7184 c-316 -40 -587 -170 -806 -389 -133 -131 -212 -240 -290
-400 -68 -139 -99 -235 -135 -416 -22 -108 -23 -141 -27 -664 -3 -516 -4 -551
-22 -570 -75 -83 -197 -317 -255 -490 -99 -296 -105 -374 -105 -1321 0 -830 0
-839 -50 -1037 -50 -203 -197 -460 -360 -632 -117 -124 -128 -199 -39 -279 39
-36 40 -36 130 -36 274 0 649 98 1013 266 77 35 145 64 153 64 10 0 13 -48 13
-255 0 -285 9 -355 62 -485 43 -105 86 -166 178 -254 195 -186 461 -235 722
-135 154 60 262 170 358 364 79 159 77 145 86 750 l7 537 76 56 c306 224 507
491 627 836 48 138 101 357 120 496 22 163 29 487 15 654 -30 351 -161 749
-330 1000 l-51 75 0 341 0 340 107 0 106 0 -6 -102 c-4 -57 -10 -121 -14 -142
l-6 -39 34 7 c53 10 150 60 196 100 94 82 200 259 224 374 7 33 9 106 7 181
-4 103 -10 140 -32 205 -39 114 -99 210 -191 302 -86 86 -155 131 -258 167
-59 21 -75 33 -164 127 -194 205 -404 324 -668 382 -88 19 -344 32 -425 22z
m594 -499 c262 -50 469 -272 509 -546 8 -60 8 -104 -1 -187 -7 -59 -12 -158
-12 -220 l0 -112 -74 -59 c-81 -64 -138 -94 -261 -136 -105 -36 -277 -46 -375
-21 -228 58 -407 230 -474 456 -23 77 -31 220 -17 309 42 266 258 482 521 520
83 13 102 12 184 -4z m-309 -1594 c140 -40 310 -123 404 -196 127 -100 246
-270 275 -395 34 -144 11 -407 -50 -565 -98 -252 -288 -541 -393 -594 -90 -46
-198 -30 -231 35 -8 16 -16 31 -17 33 -2 3 -65 -58 -141 -135 -364 -369 -836
-660 -1292 -797 -63 -19 -130 -37 -147 -40 l-33 -6 0 654 c0 414 4 692 11 757
35 318 196 656 426 892 150 153 336 271 535 337 151 51 206 59 383 55 143 -3
171 -7 270 -35z m791 -1301 c-9 -87 -54 -272 -97 -400 -121 -357 -314 -647
-661 -991 -301 -300 -745 -606 -1174 -809 -93 -45 -180 -87 -194 -94 -76 -41
-465 -176 -554 -192 l-40 -7 22 34 c124 189 208 395 246 598 l12 66 85 17
c160 32 234 51 339 85 288 95 610 255 830 412 47 33 94 66 104 73 117 78 436
353 521 449 16 19 72 81 123 139 155 173 319 431 415 653 9 20 20 37 23 37 4
0 3 -32 0 -70z"/>
<path d="M4119 6356 c-88 -31 -139 -101 -139 -189 0 -64 19 -105 68 -149 96
-86 238 -55 297 67 22 44 27 65 22 101 -13 116 -146 207 -248 170z"/>
</g>
</svg>
